<svg width="18" height="18" viewBox="0 0 18 18" fill="none" xmlns="http://www.w3.org/2000/svg">
<path d="M16.6999 0.700074C16.5718 0.571967 16.398 0.5 16.2168 0.5C16.0356 0.5 15.8618 0.571967 15.7337 0.700074L8.7 7.73375L1.66632 0.700074C1.53818 0.571967 1.3644 0.5 1.1832 0.5C1.002 0.5 0.828221 0.571967 0.700074 0.700074C0.571967 0.828221 0.5 1.002 0.5 1.1832C0.5 1.3644 0.571967 1.53818 0.700074 1.66632L7.73375 8.7L0.700074 15.7337C0.571967 15.8618 0.5 16.0356 0.5 16.2168C0.5 16.398 0.571967 16.5718 0.700074 16.6999C0.828221 16.828 1.002 16.9 1.1832 16.9C1.3644 16.9 1.53818 16.828 1.66632 16.6999L8.7 9.66625L15.7337 16.6999C15.8618 16.828 16.0356 16.9 16.2168 16.9C16.398 16.9 16.5718 16.828 16.6999 16.6999C16.828 16.5718 16.9 16.398 16.9 16.2168C16.9 16.0356 16.828 15.8618 16.6999 15.7337L9.66625 8.7L16.6999 1.66632C16.828 1.53818 16.9 1.3644 16.9 1.1832C16.9 1.002 16.828 0.828221 16.6999 0.700074Z" fill="#7464E4" stroke="#7464E4"/>
</svg>
